<svg xmlns="http://www.w3.org/2000/svg" width="27.932" height="32.014" viewBox="0 0 27.932 32.014">
  <g id="Grupo_253" data-name="Grupo 253" transform="translate(-8.6 -2.5)">
    <g id="Grupo_252" data-name="Grupo 252" transform="translate(8.6 2.5)">
      <path id="Trazado_113" data-name="Trazado 113" d="M35.722,4.659H29.212V3.31a.81.81,0,0,0-1.619,0V4.659H17.573V3.31a.81.81,0,0,0-1.619,0V4.659H9.41a.821.821,0,0,0-.81.81V27.4a.821.821,0,0,0,.81.81h6.072a7.132,7.132,0,0,0,14.168,0h6.072a.8.8,0,0,0,.81-.81V5.469A.8.8,0,0,0,35.722,4.659ZM15.92,6.312V7.661a.81.81,0,1,0,1.619,0V6.312H27.559V7.661a.81.81,0,0,0,1.619,0V6.312h5.7v4.453H10.219V6.312Zm6.646,26.583a5.482,5.482,0,1,1,5.5-5.465A5.5,5.5,0,0,1,22.566,32.895Zm7.084-6.308a7.132,7.132,0,0,0-14.168,0H10.219V12.418h24.66V26.586Z" transform="translate(-8.6 -2.5)" fill="#204f4a"/>
      <path id="Trazado_114" data-name="Trazado 114" d="M45.194,70.153l-2.631,2.6L41.45,71.637a.8.8,0,0,0-1.147,0,.776.776,0,0,0,0,1.147l1.72,1.72a.814.814,0,0,0,1.147,0l3.2-3.2a.776.776,0,0,0,0-1.147A.879.879,0,0,0,45.194,70.153Z" transform="translate(-29.441 -47.18)" fill="#204f4a"/>
    </g>
  </g>
</svg>
