<svg id="Grupo_108" data-name="Grupo 108" xmlns="http://www.w3.org/2000/svg" width="48.369" height="33" viewBox="0 0 48.369 33">
  <g id="chile">
    <path id="Trazado_57" data-name="Trazado 57" d="M0,249.2v11.858a4.515,4.515,0,0,0,4.681,4.525H43.688a4.515,4.515,0,0,0,4.681-4.525V249.2Z" transform="translate(0 -232.583)" fill="#e13e3e"/>
    <path id="Trazado_59" data-name="Trazado 59" d="M43.688,78.8H4.681A4.712,4.712,0,0,0,0,83.559V95.417H48.369V83.559A4.712,4.712,0,0,0,43.688,78.8Z" transform="translate(0 -78.8)" fill="#fff"/>
    <path id="Trazado_61" data-name="Trazado 61" d="M4.681,81.2A4.545,4.545,0,0,0,0,85.789V97.817H18.723V81.2Z" transform="translate(0 -81.2)" fill="#3757a6"/>
    <path id="Trazado_63" data-name="Trazado 63" d="M107.311,85.261v8.66" transform="translate(-58.942 -80.502)" fill="#d9eced"/>
    <path id="Trazado_67" data-name="Trazado 67" d="M57.013,124.4l1.014,3.121H61.3l-2.652,1.95,1.014,3.043-2.652-1.872-2.574,1.872.936-3.043-2.574-1.95H56Z" transform="translate(-47.651 -119.953)" fill="#fff"/>
  </g>
</svg>
