<svg xmlns="http://www.w3.org/2000/svg" width="35.175" height="35.178" viewBox="0 0 35.175 35.178">
  <g id="Grupo_251" data-name="Grupo 251" transform="translate(-36.156 -36.102)" opacity="0.822">
    <path id="Trazado_109" data-name="Trazado 109" d="M108.79,121.579A12.79,12.79,0,1,0,96,108.79,12.8,12.8,0,0,0,108.79,121.579Zm0-24.3A11.511,11.511,0,1,1,97.279,108.79,11.524,11.524,0,0,1,108.79,97.279Z" transform="translate(-55.06 -55.11)" fill="#282e3c"/>
    <path id="Trazado_110" data-name="Trazado 110" d="M233.228,213.647v3.307a.639.639,0,0,0,1.279,0v-3.307a1.918,1.918,0,0,0,1.092-2.635h0l1.918-1.918a.639.639,0,0,0-.9-.9l-1.918,1.918h0a1.918,1.918,0,1,0-1.466,3.539Zm.639-2.448a.639.639,0,1,1-.639.639A.64.64,0,0,1,233.867,211.2Z" transform="translate(-180.138 -158.159)" fill="#282e3c"/>
    <path id="Trazado_111" data-name="Trazado 111" d="M129.347,143.308c.006.013.012.026.02.038s.015.023.023.034a10.309,10.309,0,0,0,3.673,3.679c.016.011.032.022.049.032l.027.013a10.217,10.217,0,0,0,10.178,0l.027-.013c.017-.01.033-.02.049-.032a10.309,10.309,0,0,0,3.674-3.679c.008-.011.016-.022.023-.034s.013-.026.02-.038a10.216,10.216,0,0,0,0-10.155c-.006-.013-.012-.026-.02-.038s-.021-.033-.032-.049a10.308,10.308,0,0,0-3.664-3.664c-.016-.011-.032-.022-.049-.031l-.038-.019a10.216,10.216,0,0,0-10.156,0l-.037.019c-.017.01-.033.02-.049.032a10.308,10.308,0,0,0-3.664,3.664c-.011.016-.022.032-.032.049s-.013.026-.02.038a10.216,10.216,0,0,0,0,10.155Zm.828-8.988,1.087.628a.639.639,0,0,0,.647-1.1l-.007,0-1.085-.627a9.025,9.025,0,0,1,2.394-2.394l.627,1.085a.639.639,0,0,0,1.112-.632l0-.007-.627-1.087a8.885,8.885,0,0,1,3.271-.877v1.256a.639.639,0,0,0,1.279,0V129.3a8.885,8.885,0,0,1,3.271.877l-.627,1.087a.639.639,0,1,0,1.1.647l0-.007.627-1.085a9.026,9.026,0,0,1,2.394,2.394l-1.085.627a.639.639,0,1,0,.632,1.112l.007,0,1.087-.628a8.884,8.884,0,0,1,.877,3.271H145.9a.639.639,0,1,0,0,1.279h1.256a8.885,8.885,0,0,1-.877,3.271l-1.087-.628a.639.639,0,1,0-.647,1.1l.007,0,1.085.627a9.026,9.026,0,0,1-2.394,2.394l-.627-1.085a.639.639,0,1,0-1.112.632l0,.007.627,1.087a8.884,8.884,0,0,1-3.271.877V145.9a.639.639,0,1,0-1.279,0v1.256a8.884,8.884,0,0,1-3.271-.877l.628-1.087a.639.639,0,0,0-1.108-.639l-.627,1.085a9.026,9.026,0,0,1-2.394-2.394l1.085-.627a.639.639,0,1,0-.632-1.112l-.007,0-1.087.627a8.884,8.884,0,0,1-.877-3.271h1.256a.639.639,0,0,0,0-1.279H129.3a8.884,8.884,0,0,1,.877-3.271Z" transform="translate(-84.498 -84.551)" fill="#282e3c"/>
    <path id="Trazado_112" data-name="Trazado 112" d="M71.2,51.6A17.591,17.591,0,0,0,45.16,38.338a.639.639,0,1,0,.612,1.123l.011-.006a16.309,16.309,0,1,1-2.119,27.057h0a16.331,16.331,0,0,1-3.68-21.571l.131,1.1a.639.639,0,0,0,1.27-.152l-.328-2.746a.639.639,0,0,0-.71-.559h0L37.6,42.91a.639.639,0,0,0,.152,1.27l1.3-.156A17.59,17.59,0,0,0,53.708,71.28a17.876,17.876,0,0,0,2.124-.127A17.586,17.586,0,0,0,71.2,51.6Z" transform="translate(0 0)" fill="#282e3c"/>
  </g>
</svg>
