<svg id="Grupo_257" data-name="Grupo 257" xmlns="http://www.w3.org/2000/svg" width="27" height="27" viewBox="0 0 27 27">
  <path id="Trazado_119" data-name="Trazado 119" d="M13.5,27A13.5,13.5,0,1,1,27,13.5,13.516,13.516,0,0,1,13.5,27Zm0-25.312A11.813,11.813,0,1,0,25.313,13.5,11.825,11.825,0,0,0,13.5,1.688Z" fill="#496bff"/>
  <ellipse id="Elipse_46" data-name="Elipse 46" cx="1.049" cy="1.049" rx="1.049" ry="1.049" transform="translate(12.583 17.851)" fill="#496bff"/>
  <path id="Trazado_120" data-name="Trazado 120" d="M16.234,19.439a1.048,1.048,0,0,1-1.049-1.049c0-1.4,1.234-2.458,2.441-3.314a1.9,1.9,0,0,0,.558-1.872,2,2,0,0,0-1.883-1.14h0a2.3,2.3,0,0,0-2.228,1.446,1.049,1.049,0,0,1-1.966-.731A4.389,4.389,0,0,1,16.3,9.967h0a4.08,4.08,0,0,1,3.88,2.6,3.993,3.993,0,0,1-1.342,4.223c-1.4,1-1.556,1.451-1.556,1.6A1.051,1.051,0,0,1,16.234,19.439Z" transform="translate(-2.601 -2.637)" fill="#496bff"/>
</svg>
