<svg xmlns="http://www.w3.org/2000/svg" width="45.5" height="45.5" viewBox="0 0 45.5 45.5">
  <g id="Grupo_112" data-name="Grupo 112" transform="translate(-826 -4293)">
    <g id="instagram_1_" data-name="instagram (1)" transform="translate(826 4293)">
      <path id="Trazado_80" data-name="Trazado 80" d="M215.709,211.354A4.354,4.354,0,1,1,211.354,207,4.354,4.354,0,0,1,215.709,211.354Zm0,0" transform="translate(-188.604 -188.604)" fill="#00eb8f"/>
      <path id="Trazado_81" data-name="Trazado 81" d="M156.378,138.493a4.326,4.326,0,0,0-2.479-2.479,7.228,7.228,0,0,0-2.425-.45c-1.378-.063-1.791-.076-5.279-.076s-3.9.013-5.279.076a7.232,7.232,0,0,0-2.425.45,4.328,4.328,0,0,0-2.48,2.479,7.23,7.23,0,0,0-.45,2.426c-.063,1.377-.076,1.791-.076,5.279s.014,3.9.076,5.279a7.228,7.228,0,0,0,.45,2.425,4.326,4.326,0,0,0,2.479,2.479,7.219,7.219,0,0,0,2.426.45c1.377.063,1.79.076,5.279.076s3.9-.013,5.279-.076a7.219,7.219,0,0,0,2.426-.45,4.326,4.326,0,0,0,2.479-2.479,7.234,7.234,0,0,0,.45-2.425c.063-1.378.076-1.791.076-5.279s-.013-3.9-.076-5.279A7.219,7.219,0,0,0,156.378,138.493Zm-10.184,14.412A6.708,6.708,0,1,1,152.9,146.2,6.708,6.708,0,0,1,146.194,152.906Zm6.973-12.114a1.568,1.568,0,1,1,1.568-1.568A1.568,1.568,0,0,1,153.168,140.792Zm0,0" transform="translate(-123.444 -123.448)" fill="#00eb8f"/>
      <path id="Trazado_82" data-name="Trazado 82" d="M22.75,0A22.75,22.75,0,1,0,45.5,22.75,22.752,22.752,0,0,0,22.75,0ZM35.735,28.136a9.584,9.584,0,0,1-.607,3.171,6.68,6.68,0,0,1-3.821,3.821,9.591,9.591,0,0,1-3.171.607c-1.393.064-1.838.079-5.386.079s-3.993-.015-5.386-.079a9.591,9.591,0,0,1-3.171-.607,6.68,6.68,0,0,1-3.821-3.821,9.582,9.582,0,0,1-.607-3.171C9.7,26.743,9.687,26.3,9.687,22.75s.015-3.993.079-5.386a9.585,9.585,0,0,1,.607-3.171,6.684,6.684,0,0,1,3.821-3.821,9.593,9.593,0,0,1,3.171-.607c1.393-.064,1.838-.079,5.386-.079s3.993.015,5.386.079a9.6,9.6,0,0,1,3.171.606,6.682,6.682,0,0,1,3.821,3.821,9.583,9.583,0,0,1,.607,3.171c.064,1.393.078,1.838.078,5.386S35.8,26.743,35.735,28.136Zm0,0" fill="#00eb8f"/>
    </g>
  </g>
</svg>
