<svg id="order" xmlns="http://www.w3.org/2000/svg" width="38.058" height="42.367" viewBox="0 0 38.058 42.367">
  <g id="Grupo_190" data-name="Grupo 190" transform="translate(2.872 23.696)">
    <g id="Grupo_189" data-name="Grupo 189" transform="translate(0)">
      <path id="Trazado_100" data-name="Trazado 100" d="M56.722,264a.718.718,0,0,0-.718.718v2.872a.718.718,0,0,0,1.436,0V264.72A.718.718,0,0,0,56.722,264Z" transform="translate(-56.004 -264.002)" fill="#282e3c"/>
    </g>
  </g>
  <g id="Grupo_192" data-name="Grupo 192" transform="translate(5.744 25.132)">
    <g id="Grupo_191" data-name="Grupo 191">
      <path id="Trazado_101" data-name="Trazado 101" d="M88.722,280a.718.718,0,0,0-.718.718v2.872a.718.718,0,1,0,1.436,0V280.72A.718.718,0,0,0,88.722,280Z" transform="translate(-88.004 -280.002)" fill="#282e3c"/>
    </g>
  </g>
  <g id="Grupo_194" data-name="Grupo 194" transform="translate(23.696 28.004)">
    <g id="Grupo_193" data-name="Grupo 193">
      <path id="Trazado_102" data-name="Trazado 102" d="M296.972,312.984a.718.718,0,0,0-.8,1.189,4.308,4.308,0,1,1-2.408-.735.718.718,0,0,0,0-1.436,5.744,5.744,0,1,0,3.212.982Z" transform="translate(-288.016 -312.002)" fill="#282e3c"/>
    </g>
  </g>
  <g id="Grupo_196" data-name="Grupo 196" transform="translate(0 0)">
    <g id="Grupo_195" data-name="Grupo 195" transform="translate(0 0)">
      <path id="Trazado_103" data-name="Trazado 103" d="M61.722,31.363a8.613,8.613,0,0,0-4.688-5.442V10.053a.718.718,0,0,0-.353-.618L40.884.1a.718.718,0,0,0-.731,0l-15.8,9.335c-.015.009-.026.022-.04.032s-.028.022-.042.033a.708.708,0,0,0-.159.175c0,.005-.009.008-.011.013v.005a.718.718,0,0,0-.081.235.636.636,0,0,1-.009.063.628.628,0,0,0-.01.062V28.722a.718.718,0,0,0,.353.618l15.8,9.335a.588.588,0,0,0,.058.024.565.565,0,0,0,.06.026.641.641,0,0,0,.494,0,.576.576,0,0,0,.061-.026c.019-.009.039-.014.057-.024l4.287-2.534a8.613,8.613,0,0,0,16.55-4.777ZM40.519,1.552l3.734,2.207L38.717,7.03a.718.718,0,1,0,.731,1.237L45.665,4.6,49.4,6.8,35.014,15.3,31.28,13.094,37.295,9.54A.718.718,0,1,0,36.564,8.3l-6.7,3.957-3.735-2.207ZM34.3,16.545v4.794l-3.709-2.192V14.353ZM45.111,31.529a8.749,8.749,0,0,0-.236,3.119L41.237,36.8V34.466a.718.718,0,0,0-1.436,0V36.8L25.44,28.313v-17L29.15,13.5v6.052a.718.718,0,0,0,.353.619l5.145,3.041a.718.718,0,0,0,1.084-.618V17.393L39.8,19.8v11.8a.718.718,0,0,0,1.436,0V19.8l13.014-7.69a.718.718,0,0,0-.731-1.236l-13,7.683-4.093-2.419,14.385-8.5L55.6,10.462V25.419A8.582,8.582,0,0,0,45.111,31.529Zm8.333,9.4a7.18,7.18,0,1,1,7.18-7.18A7.18,7.18,0,0,1,53.444,40.929Z" transform="translate(-24.004 0)" fill="#282e3c"/>
    </g>
  </g>
  <g id="Grupo_198" data-name="Grupo 198" transform="translate(26.576 31.603)">
    <g id="Grupo_197" data-name="Grupo 197" transform="translate(0)">
      <path id="Trazado_104" data-name="Trazado 104" d="M325.609,352.3a.718.718,0,0,0-1,0l-2.724,2.724-.569-.569a.718.718,0,0,0-1.015,1.015l1.077,1.077a.718.718,0,0,0,1.015,0l3.231-3.231A.718.718,0,0,0,325.609,352.3Z" transform="translate(-320.102 -352.1)" fill="#282e3c"/>
    </g>
  </g>
</svg>
