<svg xmlns="http://www.w3.org/2000/svg" width="38.058" height="38.058" viewBox="0 0 38.058 38.058">
  <g id="Grupo_254" data-name="Grupo 254" transform="translate(-20.155 -20.132)">
    <path id="Trazado_115" data-name="Trazado 115" d="M57.682,20.663a.966.966,0,0,1,0,1.364l-2.955,2.954,2.544,2.543a3.215,3.215,0,0,1,.922,2.627l-.614,5.525a3.216,3.216,0,0,1-.922,1.918L37,57.248a3.213,3.213,0,0,1-4.545,0L21.1,45.887a3.213,3.213,0,0,1,0-4.545L40.751,21.688a3.216,3.216,0,0,1,1.918-.922l5.525-.614a3.215,3.215,0,0,1,2.627.922l2.543,2.544,2.954-2.955A.966.966,0,0,1,57.682,20.663ZM52,24.981l-2.544-2.544a1.285,1.285,0,0,0-.935-.376l-.116.008-5.525.614a1.285,1.285,0,0,0-.687.3l-.08.073L22.46,42.705a1.285,1.285,0,0,0-.066,1.748l.066.07L33.822,55.885a1.285,1.285,0,0,0,1.748.066l.07-.066L55.294,36.231a1.283,1.283,0,0,0,.352-.659l.017-.108.614-5.525a1.282,1.282,0,0,0-.29-.965l-.078-.086-2.544-2.544L50.089,29.62a3.534,3.534,0,1,1-1.363-1.364Zm-3.863,5.227a1.607,1.607,0,1,0,0,2.272A1.606,1.606,0,0,0,48.138,30.208Z" transform="translate(0 0)" fill="#204f4a"/>
    <path id="Trazado_116" data-name="Trazado 116" d="M44,49.967l3.248-3.51A5.16,5.16,0,0,1,48.3,48.967a.692.692,0,0,0,1.379-.1,6.286,6.286,0,0,0-1.469-3.446l.859-.929a.7.7,0,1,0-1.023-.946l-.852.92c-1.908-1.431-4.2-1.414-5.6.1-1.562,1.689-.126,4.018.667,5.234l-3.595,3.887a8.4,8.4,0,0,1-1.359-3.206.69.69,0,1,0-1.378.053,8.92,8.92,0,0,0,1.785,4.17l-.782.846a.7.7,0,0,0,1.023.946h0l.767-.83c1.448,1.052,3.82,1.826,5.431.085C45.442,54.436,45.377,52.333,44,49.967Zm-.767-1.222c-.617-1-1.367-2.4-.608-3.224.995-1.075,2.482-.782,3.615-.026l-3,3.245Zm-3.58,5.921,3.352-3.624c.613,1.183,1.058,2.738.089,3.786-1.007,1.161-2.59.359-3.426-.179Z" transform="translate(-5.636 -8.283)" fill="#204f4a"/>
  </g>
</svg>
