<svg id="Grupo_433" data-name="Grupo 433" xmlns="http://www.w3.org/2000/svg" width="50.236" height="50.235" viewBox="0 0 50.236 50.235">
  <g id="Grupo_173" data-name="Grupo 173">
    <path id="Trazado_95" data-name="Trazado 95" d="M381.341,22.327A19.536,19.536,0,0,1,361.805,2.791a2.791,2.791,0,1,0-5.582,0,19.536,19.536,0,0,1-19.536,19.536,2.791,2.791,0,0,0,0,5.582,19.536,19.536,0,0,1,19.536,19.536,2.791,2.791,0,1,0,5.582,0,19.536,19.536,0,0,1,19.536-19.536,2.791,2.791,0,1,0,0-5.582ZM359.015,35.946a25.339,25.339,0,0,0-10.828-10.828,25.342,25.342,0,0,0,10.828-10.828,25.341,25.341,0,0,0,10.828,10.828A25.341,25.341,0,0,0,359.015,35.946Z" transform="translate(-333.897)" fill="#eb8f00"/>
  </g>
</svg>
